<?xml version="1.0" standalone="no"?>
<!DOCTYPE svg PUBLIC "-//W3C//DTD SVG 20010904//EN"
 "http://www.w3.org/TR/2001/REC-SVG-20010904/DTD/svg10.dtd">
<svg version="1.0" xmlns="http://www.w3.org/2000/svg"
 width="1000.000000pt" height="1000.000000pt" viewBox="0 0 1000.000000 1000.000000"
 preserveAspectRatio="xMidYMid meet">
<metadata>
Created by potrace 1.14, written by Peter Selinger 2001-2017
</metadata>
<g transform="translate(0.000000,1000.000000) scale(0.100000,-0.100000)"
fill="#000000" stroke="none">
<path d="M1630 9242 c0 -9 -7 -11 -21 -7 -16 5 -19 4 -14 -5 6 -9 4 -11 -6 -4
-20 12 -40 14 -33 3 3 -5 0 -9 -6 -9 -7 0 -8 -5 -1 -17 7 -12 5 -21 -7 -30
-14 -11 -14 -12 -2 -8 12 4 16 -1 15 -22 0 -16 -4 -31 -10 -35 -6 -5 -4 -8 5
-8 12 0 12 -2 1 -9 -10 -7 -11 -13 -2 -30 8 -14 8 -21 1 -21 -8 0 -8 -6 0 -20
8 -14 8 -20 0 -20 -7 0 -8 -6 -2 -16 5 -9 6 -33 2 -54 -4 -24 -3 -43 3 -49 8
-8 7 -11 -2 -11 -7 0 -9 -5 -6 -10 9 -14 -23 -62 -35 -55 -6 4 -10 0 -10 -7 0
-10 -3 -9 -11 2 -8 11 -12 12 -16 3 -3 -8 -11 -10 -21 -5 -16 7 -56 8 -74 2
-20 -6 -34 -5 -45 3 -9 6 -13 5 -13 -3 0 -9 -4 -9 -17 1 -15 12 -16 12 -8 -1
8 -13 7 -13 -8 -1 -14 11 -17 11 -17 0 0 -10 -3 -10 -12 -1 -8 8 -15 9 -25 1
-9 -9 -13 -8 -13 0 0 8 -5 9 -19 1 -14 -7 -21 -6 -24 3 -4 9 -6 8 -6 -2 -1
-10 -4 -11 -15 -2 -10 8 -16 9 -21 1 -3 -6 -10 -8 -14 -6 -12 8 -10 -78 3 -93
9 -12 8 -13 -3 -6 -11 6 -13 2 -7 -19 5 -21 4 -26 -6 -20 -7 5 -5 -5 6 -20 10
-16 12 -25 6 -21 -10 6 -11 1 -6 -19 5 -20 3 -26 -5 -21 -8 5 -8 2 -2 -11 10
-21 9 -65 -1 -82 -3 -6 -2 -13 3 -16 4 -3 7 -19 5 -36 -3 -23 0 -29 9 -24 8 5
7 2 -2 -9 -8 -10 -11 -20 -8 -23 3 -3 1 -19 -3 -35 -5 -18 -5 -27 1 -24 5 4 9
2 9 -4 0 -5 -5 -13 -10 -16 -6 -4 -7 -12 -3 -18 4 -7 8 -19 8 -27 0 -8 4 -21
9 -29 7 -10 6 -12 -4 -6 -10 6 -11 2 -6 -19 5 -21 4 -26 -6 -20 -7 5 -5 -5 6
-20 10 -16 12 -25 6 -21 -10 6 -11 1 -6 -19 4 -17 3 -25 -3 -22 -10 6 -9 -19
1 -29 3 -3 3 -22 1 -41 -3 -26 0 -34 8 -28 7 4 5 -3 -4 -16 -15 -22 -15 -26
-1 -41 12 -13 12 -19 3 -25 -8 -5 -10 -3 -4 6 5 9 4 11 -4 6 -8 -6 -9 -12 -2
-20 6 -7 8 -16 4 -20 -4 -4 -1 -11 7 -16 8 -6 10 -10 4 -10 -6 0 -11 -11 -11
-25 0 -14 5 -25 11 -25 7 0 6 -3 -2 -8 -13 -9 -12 -38 2 -61 7 -10 6 -12 -4
-6 -10 6 -11 2 -6 -19 5 -21 4 -26 -6 -20 -7 5 -5 -5 6 -20 10 -16 12 -25 6
-21 -10 6 -11 1 -6 -19 4 -15 3 -25 -2 -22 -5 3 -9 -1 -9 -9 0 -8 4 -12 9 -9
5 3 6 -6 2 -20 -4 -18 -2 -26 7 -26 11 0 11 -3 -1 -10 -12 -8 -11 -10 7 -10
12 0 25 -5 28 -10 4 -7 13 -7 24 0 12 6 22 5 29 -2 9 -9 12 -9 12 1 0 10 3 11
13 2 10 -8 17 -7 25 1 9 9 12 9 12 -1 0 -11 3 -11 15 -1 12 10 15 10 15 0 0
-10 3 -10 15 0 12 10 15 10 15 -1 0 -12 2 -12 9 0 6 9 10 10 16 2 5 -9 10 -9
21 0 11 9 14 9 14 0 0 -7 5 -9 12 -5 17 11 58 11 58 1 0 -5 7 -4 15 3 12 10
15 10 15 -1 0 -11 2 -11 10 1 7 11 10 11 10 2 0 -9 5 -10 18 -3 14 7 19 6 19
-4 0 -8 -4 -12 -9 -9 -4 3 -8 0 -8 -5 0 -6 8 -11 18 -11 13 0 14 -2 3 -9 -11
-7 -11 -9 0 -14 11 -4 11 -6 1 -6 -10 -1 -10 -6 -2 -21 8 -15 8 -20 -2 -20 -9
0 -9 -3 2 -10 8 -5 10 -10 4 -10 -11 0 -11 -51 1 -69 3 -6 1 -11 -5 -11 -7 0
-8 -6 -2 -16 5 -9 6 -33 2 -54 -4 -21 -3 -44 1 -52 5 -7 3 -16 -4 -20 -7 -5
-8 -8 -1 -8 6 0 9 -13 6 -32 -3 -18 -1 -30 3 -26 5 4 15 2 23 -5 13 -10 15 -9
9 7 -6 14 -4 16 5 9 19 -14 60 -14 51 0 -3 7 3 4 14 -6 19 -17 22 -17 37 -2 9
9 16 12 16 5 0 -6 8 -10 18 -8 9 1 23 -2 31 -6 11 -7 13 -5 7 9 -5 15 -4 16 9
5 9 -7 18 -10 22 -7 3 4 13 1 21 -6 13 -10 15 -9 9 7 -7 17 -5 17 9 5 20 -16
46 -18 56 -4 5 6 12 5 20 -4 11 -11 11 -13 -1 -6 -10 6 -12 4 -7 -4 6 -9 11
-9 24 1 9 8 13 8 9 2 -4 -7 0 -15 9 -18 8 -3 12 -11 8 -17 -4 -8 -3 -9 4 -5 7
4 12 2 12 -4 0 -6 5 -8 13 -4 9 6 9 4 -1 -8 -10 -13 -10 -17 0 -20 10 -4 10
-8 -1 -21 -11 -14 -11 -17 0 -17 10 0 10 -3 1 -12 -7 -7 -12 -17 -12 -22 0 -6
5 -4 10 4 8 12 10 10 7 -10 -1 -14 -6 -31 -11 -39 -6 -10 -5 -12 2 -7 15 9 15
1 1 -26 -8 -15 -8 -19 0 -14 6 4 11 4 11 1 0 -4 -5 -16 -11 -27 -6 -11 -7 -18
-2 -15 6 4 10 -8 11 -25 1 -24 -2 -28 -8 -18 -6 8 -10 10 -10 4 0 -6 3 -14 8
-18 10 -11 9 -30 -3 -38 -6 -5 -6 -8 3 -8 6 0 12 -5 12 -11 0 -5 -5 -7 -11 -4
-6 4 -5 -2 3 -14 8 -12 16 -17 22 -11 5 5 16 5 28 -1 13 -7 18 -6 18 3 0 9 3
9 12 0 8 -8 15 -9 25 -1 9 8 14 7 19 -5 5 -14 8 -14 22 1 16 15 17 15 21 -2 2
-12 5 -14 11 -6 9 16 42 21 57 9 7 -6 14 -5 18 2 5 8 11 8 21 -1 11 -9 14 -8
14 2 0 11 2 11 10 -1 9 -13 11 -13 20 0 5 8 10 10 10 4 0 -6 7 -11 15 -11 8 0
15 5 15 11 0 7 3 7 8 1 10 -14 32 -17 32 -5 0 5 7 7 15 4 8 -4 12 -11 9 -18
-3 -6 2 -2 10 8 12 15 16 16 16 5 0 -12 2 -12 10 1 5 8 10 10 10 3 0 -12 24
-12 36 0 4 3 15 2 25 -4 14 -7 19 -6 19 2 0 8 4 9 13 0 10 -8 17 -7 25 1 8 8
13 7 18 -5 5 -15 7 -15 22 0 16 15 17 15 21 -2 2 -12 5 -14 11 -6 9 16 42 21
57 9 7 -6 14 -5 18 2 5 8 11 8 21 -1 11 -9 14 -8 14 2 0 11 2 11 10 -1 9 -13
11 -13 20 0 5 8 10 10 10 4 0 -6 7 -11 15 -11 8 0 15 5 15 11 0 7 3 7 8 1 10
-14 32 -17 32 -5 0 5 7 7 15 4 8 -4 12 -11 9 -18 -3 -6 2 -2 10 8 12 15 16 16
16 5 0 -12 2 -12 10 1 5 8 10 10 10 3 0 -12 24 -12 36 0 4 3 15 2 25 -4 14 -7
19 -6 19 2 0 8 4 9 13 0 10 -8 17 -7 25 1 8 8 13 7 18 -5 5 -15 7 -15 22 0 16
15 17 15 21 -2 2 -12 5 -14 10 -6 10 15 49 22 56 10 4 -5 14 -5 26 1 15 8 21
7 25 -4 5 -14 8 -13 22 1 16 15 17 15 21 -2 2 -12 5 -14 11 -6 9 16 42 21 57
9 7 -6 14 -5 18 2 5 8 11 8 21 -1 11 -9 14 -8 14 2 0 11 2 11 10 -1 9 -13 11
-13 20 0 5 8 10 10 10 4 0 -6 7 -11 15 -11 8 0 15 5 15 11 0 7 3 7 8 1 10 -14
32 -17 32 -4 0 8 5 8 15 -1 12 -10 15 -10 15 0 0 10 3 10 15 0 8 -6 20 -8 27
-4 18 11 48 12 54 2 3 -4 10 -8 15 -8 6 0 8 4 4 9 -3 5 8 3 25 -5 31 -16 42
-31 15 -20 -8 3 -15 3 -15 0 0 -2 10 -9 23 -14 22 -9 22 -9 -3 -10 -22 0 -23
-2 -7 -11 9 -5 17 -14 17 -19 0 -5 -8 -7 -17 -3 -13 4 -11 -1 6 -15 21 -19 21
-26 0 -24 -4 1 -5 -7 -2 -18 3 -11 8 -18 12 -16 8 6 5 -64 -4 -86 -4 -10 -12
-15 -18 -11 -6 3 -7 1 -3 -5 4 -6 14 -8 23 -5 12 5 14 3 7 -8 -4 -8 -9 -20
-11 -28 -1 -8 -8 -18 -15 -22 -7 -5 -8 -9 -2 -9 5 0 16 6 23 13 11 10 12 8 4
-8 -6 -11 -8 -26 -5 -34 2 -8 0 -11 -6 -7 -6 4 -8 -2 -5 -14 3 -11 9 -18 13
-15 8 5 5 -32 -5 -57 -5 -11 -3 -18 5 -18 9 0 9 -4 -1 -17 -12 -15 -12 -16 1
-8 13 8 13 7 1 -8 -9 -12 -10 -17 -2 -17 7 0 9 -5 6 -10 -12 -19 -16 -62 -6
-56 10 7 7 -26 -4 -44 -3 -6 -1 -10 5 -10 7 0 8 -6 0 -19 -12 -24 -13 -44 -2
-37 5 3 9 -1 9 -9 0 -8 -4 -12 -9 -9 -4 3 -8 -2 -8 -11 0 -9 4 -14 8 -11 4 2
8 -4 8 -14 0 -10 -4 -16 -8 -14 -13 8 -9 -11 5 -25 10 -11 10 -13 0 -7 -8 5
-13 1 -13 -9 0 -9 5 -13 11 -9 8 4 8 0 0 -15 -7 -11 -8 -21 -4 -21 4 0 1 -5
-7 -10 -13 -8 -13 -10 1 -10 9 0 16 -7 16 -15 0 -8 -4 -12 -9 -9 -4 3 -8 0 -8
-5 0 -6 6 -11 13 -11 6 -1 1 -7 -13 -16 -20 -12 -21 -14 -4 -9 14 4 21 1 21
-9 0 -9 -5 -12 -10 -9 -6 4 -8 0 -4 -9 3 -9 0 -21 -6 -27 -9 -9 -8 -10 7 -5
16 6 18 4 13 -10 -4 -10 -7 -20 -7 -22 0 -3 -6 -2 -12 2 -10 6 -10 5 -1 -8 7
-8 10 -18 6 -21 -3 -4 -2 -7 4 -7 10 0 11 -29 1 -46 -4 -5 -3 -16 2 -24 4 -7
4 -24 -1 -37 -6 -16 -5 -23 3 -23 6 0 3 -9 -8 -21 -10 -11 -14 -19 -9 -17 10
3 16 -5 14 -19 -4 -28 -3 -39 6 -45 6 -5 5 -8 -4 -8 -11 0 -11 -3 0 -17 12
-15 12 -16 -6 -9 -15 5 -17 4 -8 -5 6 -6 9 -18 6 -27 -5 -11 -3 -13 8 -7 11 7
12 6 4 -6 -12 -17 -13 -39 -1 -58 6 -10 5 -12 -2 -7 -7 4 -12 3 -12 -3 0 -5 6
-12 13 -14 6 -3 3 -6 -8 -7 -19 -1 -19 -1 -2 -11 9 -6 14 -15 10 -22 -12 -20
-12 -57 0 -57 7 0 6 -4 -3 -10 -8 -5 -11 -10 -6 -10 5 0 3 -7 -4 -15 -11 -13
-10 -14 5 -9 15 6 16 4 6 -14 -9 -17 -9 -22 1 -22 9 0 9 -3 -2 -10 -13 -9 -13
-10 0 -10 12 0 12 -2 2 -9 -17 -11 -17 -21 0 -32 11 -7 11 -9 -1 -9 -8 0 -11
-7 -8 -20 4 -17 2 -18 -14 -9 -15 7 -19 7 -17 -3 2 -9 -10 -13 -39 -13 -24 0
-43 4 -43 9 0 5 -9 1 -19 -8 -18 -17 -20 -17 -30 1 -6 10 -11 13 -11 8 0 -12
-90 -15 -90 -3 0 4 -5 8 -11 8 -5 0 -8 -4 -5 -8 3 -5 -1 -9 -9 -9 -8 0 -15 4
-15 9 0 4 -5 8 -11 8 -5 0 -8 -3 -6 -7 3 -5 -12 -8 -34 -8 -21 0 -39 4 -39 9
0 5 -6 3 -14 -3 -11 -9 -15 -9 -18 1 -4 10 -8 10 -19 1 -16 -13 -36 -12 -58 1
-10 6 -12 5 -7 -2 4 -7 2 -12 -3 -12 -6 0 -11 3 -11 8 0 4 -13 7 -29 7 -16 1
-27 -3 -25 -7 3 -4 -2 -8 -10 -8 -9 0 -16 5 -16 11 0 8 -5 7 -16 -2 -13 -10
-17 -10 -25 2 -6 10 -9 10 -9 2 0 -7 -5 -13 -11 -13 -5 0 -8 4 -5 8 3 5 -1 9
-9 9 -8 0 -12 -4 -9 -9 3 -4 0 -8 -5 -8 -6 0 -11 5 -11 12 0 9 -3 9 -12 0 -16
-16 -31 -15 -22 1 5 8 2 8 -9 -2 -14 -11 -17 -11 -17 0 0 12 -2 12 -9 0 -6 -9
-11 -10 -15 -2 -5 8 -13 8 -27 1 -14 -8 -19 -7 -19 2 -1 8 -7 5 -15 -6 -12
-15 -15 -16 -15 -5 0 9 -7 16 -15 16 -8 0 -12 -4 -9 -8 2 -4 -10 -6 -28 -5
-18 2 -39 -1 -46 -7 -9 -7 -11 -5 -5 8 5 15 3 17 -13 11 -39 -16 -57 -19 -51
-8 8 12 -11 11 -32 -3 -10 -5 -16 -4 -19 4 -3 9 -7 9 -19 0 -12 -10 -16 -10
-24 2 -5 8 -9 9 -9 4 0 -14 -83 -15 -92 -1 -5 7 -8 6 -8 -4 0 -13 -1 -13 -10
0 -8 12 -10 12 -10 1 0 -11 -3 -11 -17 0 -14 12 -16 12 -8 0 6 -11 4 -13 -7
-9 -17 7 -21 -20 -5 -40 7 -9 5 -11 -9 -5 -17 6 -17 5 -5 -10 9 -12 10 -17 2
-17 -7 0 -9 -5 -5 -12 11 -17 11 -58 1 -58 -4 0 -5 -6 0 -12 4 -7 6 -26 4 -42
-2 -21 1 -26 11 -21 7 3 4 -1 -6 -9 -11 -9 -15 -16 -10 -16 5 0 10 -9 10 -20
0 -11 -4 -20 -9 -20 -5 0 -4 -7 3 -15 9 -11 9 -15 1 -15 -7 0 -9 -5 -5 -12 11
-18 12 -68 2 -68 -5 0 -6 -5 -2 -12 11 -17 11 -58 1 -58 -4 0 -5 -6 0 -12 4
-7 6 -26 4 -42 -2 -21 1 -26 11 -21 7 3 4 -1 -6 -9 -11 -9 -15 -16 -10 -16 5
0 10 -9 10 -20 0 -11 -4 -20 -9 -20 -5 0 -4 -7 3 -15 9 -11 9 -15 1 -15 -7 0
-9 -5 -5 -12 11 -18 12 -68 2 -68 -5 0 -6 -5 -2 -12 11 -17 11 -58 1 -58 -4 0
-5 -6 0 -12 4 -7 6 -26 4 -42 -2 -21 1 -26 11 -21 7 3 4 -1 -6 -9 -11 -9 -15
-16 -10 -16 5 0 10 -9 10 -20 0 -11 -4 -20 -9 -20 -5 0 -4 -7 3 -15 9 -11 9
-15 1 -15 -7 0 -9 -5 -5 -12 11 -18 12 -68 2 -68 -5 0 -6 -5 -2 -12 11 -17 11
-58 1 -58 -4 0 -5 -6 0 -12 4 -7 6 -26 4 -42 -2 -21 1 -26 11 -21 7 3 4 -1 -6
-9 -11 -9 -15 -16 -10 -16 5 0 10 -9 10 -20 0 -11 -4 -20 -9 -20 -5 0 -4 -7 3
-15 9 -11 9 -15 1 -15 -7 0 -9 -5 -5 -12 11 -18 12 -68 2 -68 -5 0 -6 -5 -2
-12 11 -17 11 -58 1 -58 -4 0 -5 -6 0 -12 4 -7 6 -26 4 -42 -2 -21 1 -26 11
-21 7 3 4 -1 -6 -9 -11 -9 -15 -16 -10 -16 5 0 10 -9 10 -20 0 -11 -4 -20 -9
-20 -5 0 -4 -7 3 -15 9 -11 9 -15 1 -15 -7 0 -9 -5 -5 -12 11 -18 12 -68 2
-68 -5 0 -6 -5 -2 -12 11 -17 11 -58 1 -58 -4 0 -5 -6 0 -12 4 -7 6 -26 4 -42
-2 -21 1 -26 11 -21 7 3 4 -1 -6 -9 -11 -9 -15 -16 -10 -16 5 0 10 -9 10 -20
0 -11 -4 -20 -9 -20 -5 0 -4 -7 3 -15 9 -11 9 -15 1 -15 -7 0 -9 -5 -5 -12 11
-18 11 -78 0 -78 -5 0 -1 -9 8 -19 12 -13 14 -21 6 -26 -6 -4 -9 -13 -6 -21 3
-8 0 -14 -6 -14 -6 0 -3 -8 7 -18 21 -20 61 -27 70 -13 3 5 14 7 25 4 11 -3
17 -10 13 -17 -5 -8 -3 -8 8 0 8 6 30 10 49 8 19 -1 41 3 49 10 11 8 13 8 7
-1 -5 -9 2 -13 24 -13 22 0 29 4 24 13 -4 6 3 3 16 -8 13 -11 21 -15 17 -10
-4 7 15 10 54 10 44 -1 65 -7 77 -20 9 -10 11 -15 5 -11 -7 4 -13 3 -13 -3 0
-5 6 -12 13 -14 6 -3 7 -6 1 -6 -11 -1 -10 -52 1 -72 5 -8 4 -10 -3 -5 -15 9
-15 1 -1 -26 8 -15 8 -19 0 -14 -6 4 -11 3 -11 -3 0 -5 5 -13 11 -17 8 -4 7
-9 -2 -14 -10 -7 -10 -12 0 -23 9 -12 9 -16 -1 -20 -10 -4 -10 -8 2 -16 8 -6
10 -11 5 -11 -6 0 -10 -12 -9 -27 1 -16 3 -28 4 -28 1 0 3 -10 4 -22 1 -12 -1
-20 -5 -18 -8 6 -5 -47 4 -62 4 -6 3 -13 0 -17 -4 -4 -6 -32 -5 -63 1 -31 -4
-63 -10 -70 -9 -11 -7 -12 8 -7 16 6 17 5 7 -7 -15 -15 -17 -33 -4 -25 4 3 6
-7 4 -22 -2 -15 -4 -40 -3 -56 0 -16 -5 -33 -12 -38 -9 -5 -7 -8 7 -8 15 0 17
-2 6 -9 -9 -6 -10 -11 -2 -15 7 -5 7 -15 1 -31 -7 -18 -6 -25 3 -25 7 0 8 -3
2 -8 -11 -8 -13 -42 -2 -59 4 -6 1 -14 -5 -16 -10 -4 -9 -8 2 -16 8 -6 10 -11
5 -11 -12 0 -13 -39 -2 -57 4 -6 1 -13 -5 -16 -10 -3 -10 -7 0 -19 10 -13 10
-17 0 -21 -10 -4 -10 -8 2 -16 8 -6 10 -11 5 -11 -12 0 -13 -39 -2 -57 4 -6 1
-14 -5 -16 -10 -4 -9 -8 2 -16 8 -6 10 -11 5 -11 -12 0 -13 -40 -2 -57 4 -7 3
-15 -3 -18 -8 -5 -8 -11 -1 -19 6 -7 8 -16 5 -19 -10 -10 -10 -157 -1 -157 5
0 5 -5 1 -12 -5 -7 -7 -25 -6 -41 2 -16 -3 -36 -9 -43 -10 -12 -8 -13 7 -8 16
6 17 5 7 -7 -15 -15 -17 -33 -4 -25 4 3 6 -7 4 -22 -13 -81 5 -135 35 -110 10
9 16 8 23 -3 8 -12 10 -12 19 1 9 13 11 13 20 0 9 -13 10 -13 10 0 0 13 1 13
10 0 9 -13 10 -13 10 0 0 13 1 13 10 0 9 -13 10 -13 10 0 0 13 1 13 10 0 9
-13 10 -13 10 0 0 13 1 13 10 0 9 -13 10 -13 10 0 0 13 1 13 10 0 9 -13 10
-13 10 0 0 13 1 13 10 0 9 -13 10 -13 10 0 0 13 1 13 10 0 6 -9 13 -11 18 -5
9 12 42 16 42 5 0 -10 20 -8 37 3 8 5 13 3 13 -3 0 -8 6 -8 20 0 15 8 20 8 20
-2 0 -9 3 -9 11 -1 9 9 15 8 25 -2 17 -17 18 -29 2 -19 -7 5 -8 3 -2 -7 12
-20 14 -39 3 -39 -6 0 -6 -7 0 -19 6 -10 8 -21 5 -24 -3 -3 -1 -15 5 -26 10
-17 9 -20 -5 -14 -12 4 -15 3 -10 -6 12 -19 16 -71 5 -71 -6 0 -6 -6 0 -19 6
-10 8 -21 5 -24 -3 -3 -1 -15 5 -26 10 -17 9 -20 -5 -14 -14 5 -15 3 -6 -14 6
-11 8 -23 4 -27 -3 -4 0 -11 8 -16 11 -7 12 -10 2 -10 -7 0 -10 -5 -7 -10 4
-6 11 -8 16 -5 5 4 9 1 9 -6 0 -10 3 -10 12 -1 17 17 28 15 28 -5 0 -15 2 -16
10 -3 5 8 18 16 29 16 11 1 18 -3 15 -7 -3 -5 -1 -9 5 -9 5 0 13 4 16 10 3 5
12 10 18 10 7 0 6 -4 -3 -10 -8 -5 -10 -10 -5 -10 6 0 16 5 23 12 9 9 12 8 12
-8 0 -16 2 -16 10 -4 5 8 18 16 29 16 11 1 18 -3 15 -7 -3 -5 -1 -9 5 -9 5 0
12 6 14 13 4 10 6 10 6 0 1 -7 10 -13 22 -13 11 0 18 4 15 8 -3 5 1 9 9 9 8 0
15 -7 15 -14 0 -8 5 -11 10 -8 6 4 8 10 6 14 -3 4 9 7 25 6 16 0 29 -4 29 -9
0 -5 7 -3 15 4 10 9 15 9 15 1 0 -6 9 -11 21 -11 11 0 18 4 15 8 -3 5 1 9 9 9
8 0 15 -7 15 -14 0 -8 5 -11 10 -8 6 4 8 10 6 14 -3 4 9 7 25 6 16 0 29 -4 29
-9 0 -5 6 -3 14 3 10 9 15 8 19 -4 4 -8 13 -12 22 -9 8 3 12 11 8 18 -4 8 -2
8 7 -1 9 -8 20 -9 37 -2 21 8 24 7 20 -5 -4 -10 -1 -13 8 -9 8 3 12 10 8 17
-4 8 -2 8 7 -1 9 -8 20 -9 37 -2 21 8 24 7 20 -5 -4 -10 -1 -13 8 -9 8 3 12
10 8 17 -4 8 -2 8 7 -1 9 -8 20 -9 37 -2 21 8 24 7 20 -5 -4 -10 -1 -13 8 -9
8 3 12 10 8 17 -4 6 0 6 9 -2 12 -9 18 -10 23 -2 5 7 11 8 19 1 13 -11 34 -10
55 3 9 6 12 5 8 -1 -4 -6 0 -14 9 -17 8 -3 12 -2 9 3 -3 5 -1 12 5 16 5 3 10
1 10 -4 0 -6 5 -11 11 -11 5 0 7 6 3 13 -6 9 -5 9 7 0 16 -13 36 -12 58 1 10
7 12 6 6 -4 -6 -10 -4 -12 7 -7 9 3 21 0 27 -6 9 -9 10 -7 5 8 -6 16 -5 18 7
10 20 -15 73 -20 65 -6 -4 7 -1 8 8 5 9 -3 13 -11 9 -18 -4 -6 1 -5 10 3 9 7
17 10 17 5 0 -4 5 -3 12 4 7 7 17 12 23 12 5 0 3 -4 -5 -10 -10 -6 -2 -8 25
-7 22 1 46 6 54 11 10 7 12 6 6 -3 -9 -16 46 -12 57 4 5 6 8 5 8 -4 0 -11 3
-11 17 0 11 10 14 10 9 1 -9 -16 6 -16 23 1 11 10 13 10 7 -1 -5 -7 -1 -12 9
-12 9 0 13 5 9 11 -3 6 6 3 22 -7 15 -11 25 -14 21 -8 -4 7 0 15 9 18 11 4 15
2 11 -8 -4 -10 -1 -13 8 -9 8 3 12 10 8 17 -4 8 -2 8 7 -1 9 -8 20 -9 37 -2
21 8 24 7 20 -5 -4 -10 -1 -13 8 -9 8 3 12 10 8 17 -4 8 -2 8 7 -1 9 -8 20 -9
37 -2 21 8 24 7 20 -5 -4 -10 -1 -13 8 -9 8 3 12 10 8 17 -4 8 -2 8 7 -1 9 -8
20 -9 37 -2 21 8 24 7 20 -5 -4 -10 -1 -13 8 -9 8 3 12 10 8 17 -4 8 -2 8 7
-1 9 -8 20 -9 37 -2 21 8 24 7 20 -5 -4 -10 -1 -13 8 -9 8 3 12 10 8 17 -4 8
-2 8 7 -1 9 -8 20 -9 37 -2 21 8 24 7 20 -5 -4 -10 -1 -13 8 -9 8 3 12 10 8
17 -4 8 -2 8 7 -1 9 -8 20 -9 37 -2 21 8 24 7 20 -5 -4 -10 -1 -13 8 -9 8 3
12 10 8 17 -4 8 -2 8 7 -1 9 -8 20 -9 37 -2 21 8 24 7 20 -5 -4 -10 -1 -13 8
-9 8 3 12 10 8 17 -4 6 0 6 9 -2 12 -9 18 -10 23 -2 5 7 11 8 19 1 13 -11 34
-10 55 3 9 6 12 5 8 -1 -4 -6 0 -14 9 -17 8 -3 12 -2 9 3 -3 5 -1 12 5 16 5 3
10 1 10 -4 0 -6 5 -11 11 -11 5 0 7 6 3 13 -6 9 -5 9 7 0 16 -13 36 -12 58 1
10 7 12 6 6 -4 -6 -10 -4 -12 7 -7 9 3 21 0 27 -6 9 -9 10 -7 5 8 -6 16 -5 18
7 10 20 -15 73 -20 65 -6 -4 7 -1 8 8 5 9 -3 13 -11 9 -18 -4 -6 1 -5 10 3 9
7 17 10 17 5 0 -4 5 -3 12 4 7 7 17 12 23 12 5 0 3 -4 -5 -10 -10 -6 -2 -8 25
-7 22 1 46 6 54 11 10 7 12 6 6 -3 -9 -16 46 -12 57 4 5 6 8 5 8 -4 0 -11 3
-11 17 0 11 10 14 10 9 1 -9 -16 6 -16 23 1 11 9 13 9 7 0 -5 -8 -1 -13 9 -13
9 0 13 5 9 11 -3 6 6 3 22 -7 15 -11 25 -14 21 -8 -4 7 0 15 9 18 11 4 15 2
11 -8 -4 -10 -1 -13 8 -9 8 3 12 10 8 17 -4 8 -2 8 7 -1 9 -8 20 -9 37 -2 21
8 24 7 20 -5 -4 -10 -1 -13 8 -9 8 3 12 10 8 17 -4 7 -2 7 7 -1 9 -9 19 -9 33
-2 12 7 17 7 13 1 -3 -5 1 -13 10 -16 8 -3 13 -2 10 3 -3 5 3 11 14 14 11 3
18 2 15 -3 -7 -12 88 -9 104 4 11 8 13 8 7 -2 -10 -16 16 -16 33 1 10 9 12 9
7 0 -5 -9 4 -11 31 -10 21 2 48 -1 61 -5 13 -4 21 -4 18 1 -8 13 47 11 63 -3
11 -8 13 -8 8 0 -4 7 2 14 15 17 19 5 20 8 7 23 -9 12 -10 15 -1 10 6 -4 12
-2 12 3 0 6 -6 11 -12 11 -8 0 -9 3 -3 8 11 8 13 121 2 139 -4 6 -3 14 1 17
11 6 9 36 -3 55 -5 10 -4 12 3 7 7 -4 12 -2 12 3 0 6 -6 11 -12 11 -8 0 -9 3
-3 8 14 10 15 72 2 72 -6 0 0 8 13 17 28 20 52 23 62 8 5 -6 8 -4 8 5 0 13 1
13 10 0 9 -13 10 -13 10 0 0 13 1 13 10 0 9 -13 10 -13 10 0 0 13 1 13 10 0 9
-13 10 -13 10 0 0 13 1 13 10 0 9 -13 10 -13 10 0 0 13 1 13 10 0 6 -9 13 -11
18 -5 4 6 14 10 22 10 8 0 18 -4 23 -10 4 -6 11 -4 17 5 9 13 11 13 20 0 9
-13 10 -13 10 0 0 13 1 13 10 0 9 -13 10 -13 10 0 0 13 1 13 10 0 9 -13 10
-13 10 0 0 13 1 13 10 0 9 -13 10 -13 10 0 0 13 1 13 10 0 9 -13 10 -13 10 0
0 13 1 13 10 0 9 -13 10 -13 10 0 0 13 1 13 10 0 9 -13 10 -13 10 0 0 13 1 13
10 0 8 -13 11 -12 24 5 9 12 11 24 5 31 -5 6 -4 16 4 24 10 10 9 11 -3 5 -13
-8 -13 -7 -1 8 11 14 11 17 0 17 -12 0 -12 2 0 9 10 7 10 10 1 13 -10 3 -10 9
-1 26 9 17 9 22 0 22 -9 0 -9 3 0 14 9 10 9 15 1 18 -8 2 -8 11 -1 31 7 17 7
27 1 27 -6 0 -10 5 -10 11 0 5 6 7 13 3 9 -6 9 -5 0 7 -10 12 -10 18 0 29 10
10 9 11 -3 5 -13 -8 -13 -7 -1 8 11 14 11 17 0 17 -12 0 -12 2 0 9 10 7 10 10
1 13 -10 3 -10 9 -1 26 9 17 9 22 0 22 -9 0 -9 3 0 14 9 10 9 15 1 18 -8 2 -8
11 -1 31 7 17 7 27 1 27 -6 0 -10 5 -10 11 0 5 6 7 13 3 9 -6 9 -5 0 7 -10 12
-10 18 0 29 10 10 9 11 -3 5 -13 -8 -13 -7 -1 8 11 14 11 17 0 17 -12 0 -12 2
0 9 10 7 10 10 1 13 -10 3 -10 9 -1 26 9 17 9 22 0 22 -9 0 -9 3 0 14 9 10 9
15 1 18 -8 2 -8 11 -1 31 7 17 7 27 1 27 -6 0 -10 5 -10 11 0 5 6 7 13 3 9 -6
9 -5 0 7 -10 12 -10 18 0 29 10 10 9 11 -3 5 -13 -8 -13 -7 -1 8 11 14 11 17
0 17 -12 0 -12 2 0 9 10 7 10 10 1 13 -10 3 -10 9 -1 26 9 17 9 22 0 22 -9 0
-9 3 0 14 9 10 9 15 1 18 -8 2 -8 11 -1 31 7 17 7 27 1 27 -6 0 -10 5 -10 11
0 5 6 7 13 3 9 -6 9 -5 0 7 -10 12 -10 18 0 29 10 10 9 11 -3 5 -13 -8 -13 -7
-1 8 11 14 11 17 0 17 -12 0 -12 2 0 9 10 7 10 10 1 13 -10 3 -10 9 -1 26 9
17 9 22 0 22 -9 0 -9 3 0 14 9 10 9 15 1 18 -8 2 -8 11 -1 31 7 17 7 27 1 27
-6 0 -10 5 -10 11 0 5 6 7 13 3 9 -6 9 -5 0 7 -10 12 -10 18 0 29 10 10 9 11
-3 5 -13 -8 -13 -7 -1 8 11 14 11 17 0 17 -12 0 -12 2 0 9 10 7 10 10 1 13
-10 3 -10 9 -1 26 9 17 9 22 0 22 -9 0 -9 3 0 14 9 10 9 15 1 18 -8 2 -8 11
-1 31 7 17 7 27 1 27 -6 0 -10 5 -10 11 0 5 6 7 13 3 9 -6 9 -5 0 7 -10 12
-10 18 0 29 10 10 9 11 -3 5 -13 -8 -13 -7 -1 8 11 14 11 17 0 17 -12 0 -12 2
0 9 10 7 10 10 1 13 -10 3 -10 9 -1 26 9 17 9 22 0 22 -9 0 -9 3 0 14 9 10 9
15 1 18 -8 2 -8 11 -1 30 7 19 7 28 -2 32 -7 2 -4 5 6 5 9 1 17 6 17 11 0 6 7
10 16 10 9 0 12 -5 8 -13 -6 -9 -4 -9 7 -1 8 6 30 10 49 8 19 -1 41 3 49 10
11 8 13 8 8 0 -4 -7 3 -14 18 -17 14 -2 28 0 32 6 4 6 1 7 -7 2 -9 -6 -11 -4
-6 4 6 9 13 8 29 -6 11 -10 18 -13 15 -8 -4 7 30 10 97 9 l103 -1 -9 24 c-6
17 -6 22 2 17 8 -5 10 1 5 19 -3 14 -1 29 4 32 7 4 7 11 2 18 -5 7 -8 26 -7
42 0 17 -4 36 -9 44 -8 11 -8 13 2 7 16 -10 16 16 0 33 -11 11 -10 12 1 6 10
-6 13 -4 8 7 -3 9 0 21 6 28 9 9 9 11 1 6 -8 -4 -12 5 -12 28 0 19 -3 40 -8
47 -5 8 -3 10 6 4 10 -6 11 -2 6 18 -3 14 -1 29 4 32 7 4 7 11 2 18 -5 7 -8
26 -7 42 0 17 -4 36 -9 44 -8 11 -8 13 2 7 16 -10 16 16 0 33 -11 11 -10 12 1
6 10 -6 13 -4 8 7 -3 9 0 21 6 28 9 9 9 11 0 6 -7 -4 -11 5 -11 28 0 19 -3 40
-8 47 -5 8 -3 10 6 4 10 -6 11 -2 6 18 -3 14 -1 29 4 32 7 4 7 11 2 18 -5 7
-8 26 -7 42 0 17 -4 36 -9 44 -8 11 -8 13 2 7 16 -10 16 16 0 33 -11 11 -10
12 1 6 10 -6 13 -4 8 7 -3 9 0 21 6 28 9 9 9 11 1 6 -8 -4 -12 5 -12 28 0 19
-3 40 -8 47 -5 8 -3 10 6 4 10 -6 11 -2 6 18 -3 14 -1 29 4 32 7 4 7 11 2 18
-5 7 -8 26 -7 42 0 17 -4 36 -9 44 -8 11 -8 13 2 7 16 -10 16 16 -1 33 -10 11
-9 12 2 6 10 -6 13 -4 8 7 -3 9 0 21 6 28 9 9 9 11 1 6 -8 -4 -12 5 -12 28 0
19 -3 40 -8 47 -5 8 -3 10 6 4 10 -6 11 -2 6 18 -3 14 -1 29 4 32 7 4 7 11 2
18 -5 7 -8 26 -7 42 0 17 -4 36 -9 44 -8 11 -8 13 2 7 7 -4 12 -2 12 6 0 8 -6
20 -12 27 -11 11 -10 12 1 6 10 -6 13 -4 8 7 -3 9 0 21 6 28 9 9 9 11 0 6 -7
-4 -11 5 -11 28 0 19 -3 40 -8 47 -5 8 -3 10 6 4 10 -6 11 -2 6 18 -3 14 -1
29 4 32 7 4 7 11 2 18 -5 7 -8 26 -7 42 0 17 -4 36 -9 44 -8 11 -8 13 2 7 16
-10 16 16 0 33 -11 11 -10 12 1 6 10 -6 13 -4 8 7 -3 9 0 21 6 28 9 9 9 11 0
6 -7 -4 -11 5 -11 28 0 19 -3 40 -8 47 -5 8 -3 10 6 4 10 -6 11 -2 6 18 -3 14
-1 29 4 32 8 5 7 11 0 20 -7 8 -9 18 -6 24 3 5 2 21 -4 36 -7 17 -7 24 0 20 6
-3 10 -4 10 -1 0 3 -10 10 -21 17 -15 8 -19 8 -15 0 4 -6 2 -11 -3 -11 -6 0
-11 5 -11 10 0 6 -5 10 -11 10 -5 0 -7 -5 -3 -12 5 -8 2 -9 -11 -5 -9 4 -24 2
-31 -4 -11 -9 -15 -7 -20 5 -5 13 -9 14 -20 5 -8 -6 -14 -8 -14 -3 0 14 -66
10 -83 -4 -13 -11 -17 -10 -25 4 -9 15 -13 16 -26 5 -11 -9 -16 -10 -16 -2 0
6 -5 11 -11 11 -5 0 -8 -4 -5 -9 6 -10 -37 -6 -55 5 -8 5 -9 3 -4 -5 11 -18
-37 -10 -53 9 -10 13 -11 12 -6 -4 6 -16 4 -17 -13 -8 -14 8 -23 8 -31 0 -8
-8 -12 -8 -12 -2 0 12 -29 12 -50 -1 -9 -5 -15 -4 -18 4 -3 9 -7 9 -17 1 -10
-8 -15 -8 -20 0 -5 8 -11 8 -21 -1 -11 -9 -14 -9 -14 1 0 9 -7 7 -25 -4 -15
-10 -24 -12 -23 -5 2 6 -3 14 -11 17 -8 3 -11 0 -7 -7 4 -6 1 -11 -8 -11 -9 0
-16 5 -16 10 0 6 -5 10 -11 10 -5 0 -7 -5 -3 -11 5 -8 1 -8 -14 0 -24 13 -43
15 -23 2 8 -5 -1 -8 -27 -7 -25 0 -36 4 -29 9 8 6 4 7 -10 4 -17 -4 -20 -1
-15 12 5 13 3 14 -9 4 -11 -9 -14 -7 -14 12 0 13 3 21 6 19 3 -1 6 12 6 31 0
19 -4 32 -9 29 -4 -3 -5 2 -2 10 3 9 11 16 18 16 6 0 3 5 -7 11 -12 7 -15 15
-9 22 10 14 10 27 -1 45 -5 6 -4 12 2 12 11 0 9 19 -3 39 -6 10 -5 12 2 7 7
-4 12 -2 12 3 0 6 -6 11 -12 11 -8 0 -9 3 -3 8 11 8 13 121 2 139 -4 6 -3 14
1 17 11 6 9 36 -3 55 -5 10 -4 12 3 7 7 -4 12 -2 12 3 0 6 -6 11 -12 11 -8 0
-9 3 -3 8 11 8 17 84 6 77 -4 -2 -8 2 -8 10 0 8 4 12 9 9 4 -3 8 0 8 5 0 6 -6
11 -12 11 -8 0 -9 3 -3 8 15 11 18 55 2 46 -9 -6 -9 -5 0 7 10 12 10 18 1 27
-7 7 -8 12 -2 12 5 0 10 9 11 20 1 12 -3 18 -9 14 -5 -4 -4 4 2 17 10 18 10
24 1 27 -8 3 -6 9 6 19 10 8 11 11 3 7 -13 -7 -13 -5 -1 9 15 18 26 23 16 7
-7 -11 8 -14 19 -3 3 4 15 7 25 8 13 1 17 -3 14 -14 -5 -13 -3 -13 7 -4 7 6
19 9 28 6 8 -4 13 -2 9 3 -5 8 10 9 56 5 5 -1 5 -7 1 -13 -5 -9 -3 -9 9 1 9 7
14 18 10 24 -4 6 -1 7 7 2 24 -15 90 -23 83 -11 -4 6 3 3 14 -7 12 -10 24 -14
27 -9 3 5 35 10 72 11 37 1 70 4 75 7 5 3 6 -3 2 -13 -5 -14 -3 -16 7 -6 7 6
19 9 28 6 11 -5 13 -3 7 7 -6 9 -4 11 5 5 7 -5 43 -8 79 -8 38 0 69 -4 73 -11
5 -7 8 -6 8 4 0 9 8 16 19 16 12 0 17 -5 13 -16 -4 -12 -2 -12 8 -3 7 6 19 9
28 6 11 -5 13 -3 7 7 -6 9 -4 11 5 5 23 -14 84 -11 96 5 5 8 9 52 8 98 -1 55
2 82 10 82 6 0 4 5 -4 10 -8 5 -11 10 -6 10 5 0 3 6 -3 14 -8 9 -8 16 -2 20 9
6 7 43 -4 74 -3 7 -1 11 4 8 5 -3 11 3 14 14 3 11 2 18 -3 15 -4 -3 -10 4 -13
15 -3 12 -1 18 5 14 5 -3 9 2 8 12 -1 11 -2 24 -1 30 1 13 31 14 31 1 0 -5 6
-4 14 2 10 9 16 9 21 1 5 -8 11 -8 21 1 11 9 14 8 14 -2 0 -9 3 -10 8 -4 4 6
16 10 27 10 11 0 23 -4 27 -10 5 -6 8 -5 8 4 0 10 3 11 13 2 8 -6 17 -8 21 -4
3 4 16 8 27 10 14 2 18 -1 13 -9 -5 -9 -2 -9 9 1 14 11 17 11 17 0 0 -10 3
-10 12 -1 16 16 31 15 22 0 -6 -10 -4 -10 8 0 12 10 18 10 23 1 6 -8 10 -7 17
2 8 11 11 11 15 1 4 -9 10 -7 22 7 10 12 21 18 24 15 3 -3 3 3 0 15 -3 11 -9
18 -14 15 -5 -3 -5 6 1 20 6 17 6 27 -1 32 -7 4 -7 10 0 18 7 9 7 17 -2 26 -9
10 -9 11 1 6 14 -9 17 10 2 19 -6 4 -7 12 -3 18 12 19 13 58 1 51 -7 -5 -8 -2
-2 7 13 21 14 39 1 39 -8 0 -8 3 -2 8 14 10 17 52 4 52 -8 0 -8 4 0 13 8 10 7
17 -2 27 -7 8 -8 11 -1 7 7 -4 14 2 17 14 4 15 2 18 -7 10 -9 -8 -13 -7 -13 4
0 8 5 15 11 15 6 0 4 5 -4 10 -12 8 -12 10 5 10 19 1 19 1 2 11 -14 8 -16 14
-6 25 9 11 8 14 -2 14 -9 0 -10 3 -4 8 12 8 13 22 2 40 -5 6 -4 12 0 12 5 0
15 -6 23 -12 9 -8 8 -5 -1 7 -9 11 -14 26 -11 34 3 10 0 11 -9 5 -11 -6 -12
-5 -2 7 10 12 10 18 1 27 -7 7 -8 12 -2 12 5 0 10 9 11 20 1 13 -2 18 -10 14
-9 -5 -9 -4 0 6 6 7 9 19 6 28 -5 11 -3 13 8 7 12 -8 12 -6 0 8 -7 9 -10 17
-6 17 4 0 1 8 -6 17 -8 9 -9 14 -3 10 19 -11 23 31 5 50 -19 21 -63 26 -73 9
-6 -8 -8 -7 -8 2 0 14 -65 12 -89 -2 -9 -6 -12 -5 -7 2 10 17 -17 20 -41 5
-13 -9 -24 -10 -27 -4 -3 5 -16 7 -28 3 -16 -4 -19 -2 -13 9 5 8 -2 5 -15 -6
-13 -11 -20 -14 -16 -7 5 8 0 12 -14 12 -12 0 -18 -4 -15 -10 3 -6 -1 -7 -9
-4 -9 3 -13 11 -9 17 4 6 1 7 -7 2 -23 -14 -82 -16 -74 -2 4 7 -3 3 -16 -8
-13 -11 -20 -14 -16 -7 5 8 0 12 -14 12 -12 0 -18 -4 -15 -10 3 -6 -1 -7 -9
-4 -9 3 -13 11 -9 17 4 6 1 7 -7 2 -7 -4 -34 -8 -59 -9 -25 -1 -52 -5 -60 -10
-10 -6 -12 -6 -7 2 4 7 2 12 -3 12 -6 0 -11 -6 -11 -12 0 -9 -3 -9 -8 -2 -9
14 -45 27 -37 14 4 -6 -3 -8 -17 -6 -13 2 -29 -2 -37 -8 -11 -8 -13 -8 -8 1 5
8 0 11 -13 10 -20 -1 -24 -13 -20 -51 1 -12 -2 -16 -12 -11 -7 4 -5 0 4 -10
16 -17 16 -19 0 -32 -9 -8 -12 -12 -6 -9 7 3 11 -6 12 -25 0 -16 -3 -27 -9
-24 -5 3 -6 -1 -3 -9 3 -9 10 -14 14 -11 5 3 5 -9 -1 -27 -11 -41 -11 -41 1
-33 6 3 10 1 10 -4 0 -6 -8 -11 -17 -11 -11 0 -14 -3 -8 -8 16 -10 17 -62 2
-63 -6 0 -3 -4 8 -9 11 -5 15 -9 9 -9 -6 -1 -10 -16 -9 -33 3 -43 -3 -52 -23
-36 -9 7 -13 9 -10 3 3 -5 0 -16 -8 -23 -11 -10 -14 -10 -14 0 0 9 -3 9 -10
-2 -6 -9 -10 -10 -10 -3 0 8 -9 9 -30 3 -21 -6 -30 -5 -30 3 0 7 -4 6 -10 -3
-9 -13 -10 -13 -10 0 0 13 -1 13 -10 0 -9 -13 -10 -13 -10 0 0 13 -1 13 -10 0
-6 -9 -10 -10 -10 -3 0 8 -9 9 -29 3 -16 -4 -31 -7 -33 -5 -10 10 -78 11 -78
1 0 -6 -5 -4 -10 4 -6 9 -10 10 -10 3 0 -7 -10 -10 -26 -7 -15 3 -32 6 -38 7
-7 1 -11 -17 -10 -50 0 -29 -4 -53 -9 -53 -5 0 -3 -7 4 -17 11 -13 11 -17 1
-20 -6 -3 -9 -9 -6 -15 9 -14 8 -124 -2 -139 -4 -7 -3 -10 2 -6 11 6 10 -85
-1 -102 -3 -6 -11 -9 -16 -6 -5 4 -9 1 -9 -6 0 -8 -4 -8 -15 1 -12 10 -15 10
-15 0 0 -9 -3 -10 -13 -1 -10 8 -17 7 -27 -2 -10 -9 -11 -9 -6 1 9 15 1 15
-24 2 -15 -8 -21 -6 -29 7 -6 11 -11 13 -11 5 0 -7 -4 -10 -10 -7 -5 3 -10 0
-10 -7 0 -9 -3 -9 -10 2 -8 12 -11 13 -19 1 -6 -9 -10 -10 -16 -2 -5 9 -11 9
-23 -1 -12 -10 -14 -10 -8 0 9 15 5 15 -28 2 -17 -6 -27 -6 -32 1 -4 8 -9 7
-15 -2 -7 -12 -9 -12 -9 0 0 10 -3 11 -14 2 -10 -8 -16 -9 -21 -1 -3 6 -12 7
-18 3 -18 -11 -38 -12 -31 -2 3 5 -3 9 -13 9 -12 0 -19 7 -19 20 0 11 5 20 11
20 5 0 3 5 -5 10 -12 8 -12 10 5 10 12 0 16 3 9 8 -6 4 -14 15 -17 26 -6 14
-4 17 10 12 17 -6 17 -5 1 7 -18 14 -19 47 -3 59 6 5 5 8 -2 8 -7 0 -13 5 -13
11 0 5 5 7 11 3 8 -4 8 0 0 15 -9 16 -9 21 1 21 10 0 10 2 -1 9 -9 6 -10 11
-2 15 6 4 11 13 11 19 0 7 -4 6 -10 -3 -8 -13 -10 -12 -10 3 0 9 6 17 13 17 9
0 9 2 -1 9 -19 11 -17 24 5 32 17 7 17 8 0 8 -13 1 -17 8 -15 29 2 19 -2 27
-12 27 -8 0 -18 5 -22 10 -5 6 -8 5 -8 -4 0 -11 -3 -11 -15 -1 -11 9 -15 9
-15 1 0 -9 -5 -9 -20 -1 -14 7 -20 7 -20 0 0 -5 -5 -10 -11 -10 -5 0 -7 6 -3
13 5 9 4 9 -6 0 -9 -8 -19 -9 -32 -2 -14 8 -18 6 -19 -8 0 -16 -1 -16 -9 2 -5
11 -9 14 -9 6 -1 -11 -4 -11 -16 -1 -11 9 -15 9 -15 1 0 -9 -5 -9 -20 -1 -14
7 -20 7 -20 0 0 -5 -5 -10 -11 -10 -5 0 -8 4 -5 8 3 5 -2 9 -10 9 -8 0 -13 -6
-10 -13 3 -8 0 -11 -9 -7 -8 3 -13 8 -11 12 2 3 -7 6 -20 6 -13 0 -24 -4 -24
-10 0 -5 -5 -3 -10 5 -7 11 -10 11 -10 2 0 -10 -5 -10 -20 -2 -14 7 -20 7 -20
0 0 -5 -5 -10 -11 -10 -5 0 -7 6 -3 13 6 9 5 9 -8 0 -8 -7 -17 -11 -20 -8 -3
3 -26 6 -51 8 -34 2 -47 -1 -47 -11 0 -10 -4 -9 -16 3 -13 12 -19 13 -24 5 -6
-9 -9 -9 -13 1 -4 11 -6 11 -6 1 -1 -10 -6 -10 -21 -2 -15 8 -20 8 -20 -2 0
-9 -3 -9 -10 2 -7 11 -10 11 -10 2 0 -10 -5 -10 -20 -2 -15 8 -20 8 -20 -2 0
-7 -3 -8 -9 -2 -6 5 -53 7 -110 4 -63 -3 -103 -1 -105 5 -3 7 -5 7 -5 0 -1
-10 -72 -12 -88 -2 -5 3 -15 2 -23 -3 -9 -5 -19 -5 -27 2 -9 7 -13 7 -13 0 0
-7 -10 -8 -30 -2 -17 5 -30 5 -30 0 0 -5 -13 -5 -28 0 -23 6 -31 4 -42 -13 -9
-15 -10 -22 -1 -25 6 -2 11 -8 11 -13 0 -6 -3 -8 -7 -6 -5 3 -9 -6 -9 -19 -1
-14 2 -21 8 -18 6 4 5 -4 -2 -16 -8 -15 -9 -25 -1 -33 7 -7 7 -16 0 -29 -5
-10 -6 -18 -1 -18 4 0 8 -9 8 -19 0 -16 -3 -18 -15 -8 -13 10 -13 8 1 -14 11
-18 13 -30 6 -43 -6 -11 -6 -21 2 -31 9 -10 7 -16 -7 -24 -17 -10 -17 -10 0
-11 10 0 15 -5 12 -11 -4 -5 -9 -25 -11 -42 -4 -24 -2 -28 5 -17 14 20 14 4 0
-22 -8 -14 -8 -23 0 -31 7 -7 7 -16 0 -29 -5 -10 -6 -18 -1 -18 4 0 8 -9 8
-19 0 -16 -3 -18 -15 -8 -13 10 -13 8 1 -14 11 -18 13 -30 6 -43 -6 -11 -6
-21 2 -31 9 -10 7 -16 -7 -24 -17 -10 -17 -10 0 -11 10 0 15 -5 12 -11 -4 -5
-9 -25 -11 -42 -4 -24 -2 -28 5 -17 14 20 14 4 0 -21 -7 -14 -7 -24 0 -33 7
-9 7 -16 -1 -24 -9 -9 -9 -12 1 -12 7 0 9 -4 6 -10 -3 -5 -1 -10 5 -10 6 0 8
-6 5 -12 -4 -7 0 -5 8 5 9 11 18 14 21 8 4 -6 18 -6 36 -1 19 5 28 5 25 -1 -4
-5 -1 -9 4 -9 6 0 11 5 11 10 0 7 6 7 20 0 15 -8 20 -8 20 2 0 9 3 9 10 -2 9
-13 10 -13 10 0 0 13 1 13 10 0 6 -10 10 -11 10 -2 0 18 27 15 40 -5 11 -17
11 -17 6 0 -5 15 -2 16 14 7 15 -8 20 -8 20 2 0 9 3 9 10 -2 9 -13 10 -13 10
0 0 13 1 13 10 0 9 -13 10 -13 10 0 0 13 1 13 10 0 8 -12 10 -12 11 5 l0 20 9
-20 c5 -11 9 -15 9 -10 1 6 12 10 25 10 14 0 22 -5 19 -12 -2 -6 3 -10 12 -10
13 2 17 -9 19 -50 2 -35 -1 -50 -8 -47 -6 3 -3 -1 7 -9 17 -14 17 -15 0 -21
-10 -4 -13 -10 -8 -14 13 -9 13 -185 0 -194 -6 -5 -5 -8 3 -8 10 0 10 -5 2
-20 -8 -16 -8 -20 2 -18 7 2 12 -3 10 -10 -2 -10 2 -10 18 -2 15 8 20 8 20 -1
0 -8 5 -7 17 2 15 12 16 12 8 -1 -8 -13 -7 -13 8 -1 13 10 17 10 17 1 0 -10 3
-10 14 -1 11 9 16 9 21 0 6 -8 10 -7 16 2 7 12 9 12 9 0 0 -11 3 -11 16 0 13
10 17 10 25 -2 7 -12 9 -12 9 1 0 13 1 13 10 0 8 -12 11 -13 19 -1 6 9 10 10
16 2 5 -9 10 -9 21 0 11 9 14 9 14 -1 0 -10 3 -10 15 0 12 10 15 10 15 -1 0
-11 2 -11 10 1 8 12 10 12 10 1 0 -10 3 -11 14 -2 11 9 16 9 21 0 6 -8 10 -7
16 2 7 12 9 12 9 0 0 -11 3 -11 16 0 13 10 17 10 25 -2 7 -12 9 -12 9 1 0 13
1 13 10 0 9 -13 11 -13 20 0 7 11 10 11 10 2 0 -9 5 -10 19 -2 14 7 22 7 27
-1 4 -8 9 -7 15 2 7 12 9 12 9 0 0 -11 3 -11 15 -1 12 10 15 10 15 -1 0 -11 2
-11 10 1 7 11 10 11 10 2 0 -10 5 -10 20 -2 14 8 20 8 20 0 0 -7 6 -8 19 0 14
7 22 7 27 -1 4 -8 9 -7 15 2 7 12 9 12 9 0 0 -11 3 -11 15 -1 12 10 15 10 15
0 0 -10 3 -10 15 0 12 10 15 10 15 -1 0 -11 2 -11 10 1 8 12 10 12 10 1 0 -11
3 -11 15 -1 12 10 16 9 21 -4 3 -9 11 -13 17 -9 6 3 7 1 3 -6 -4 -6 -13 -8
-19 -5 -9 5 -9 4 0 -6 6 -7 9 -19 6 -28 -5 -11 -3 -13 7 -7 9 6 11 4 4 -6 -13
-21 -13 -80 0 -72 8 5 8 3 0 -8 -12 -16 -11 -89 1 -109 6 -10 4 -12 -10 -6
-15 5 -16 4 -5 -9 7 -8 9 -15 6 -15 -4 0 -2 -10 5 -21 8 -15 8 -19 0 -15 -7 5
-10 -2 -9 -18 1 -15 7 -26 13 -26 6 0 6 -3 -1 -8 -6 -4 -11 -19 -11 -34 -1
-44 -2 -46 -19 -52 -10 -4 -13 -2 -7 7 4 6 -5 4 -20 -6 -23 -15 -26 -15 -20
-1 5 14 3 15 -15 5 -14 -8 -23 -8 -27 -1 -5 8 -11 7 -21 -1 -8 -6 -14 -8 -14
-3 0 5 -5 2 -10 -6 -5 -8 -10 -10 -10 -4 0 7 -9 14 -20 17 -13 3 -18 1 -13 -6
4 -6 0 -8 -9 -4 -9 3 -21 0 -28 -6 -10 -9 -11 -9 -6 0 8 14 -10 27 -19 13 -3
-5 -11 -10 -16 -10 -6 0 -7 5 -3 11 4 8 1 8 -12 1 -21 -10 -63 -10 -79 0 -6 4
-17 3 -25 -2 -8 -5 -22 -4 -33 2 -17 9 -19 8 -13 -7 5 -14 4 -15 -7 -7 -10 9
-17 8 -27 -1 -9 -8 -11 -9 -6 0 8 14 -10 27 -19 13 -3 -5 -11 -10 -16 -10 -6
0 -7 5 -3 11 4 8 1 8 -12 1 -21 -10 -63 -10 -79 0 -6 4 -17 3 -25 -2 -9 -5
-19 -5 -27 1 -8 7 -18 7 -32 0 -26 -14 -34 -14 -25 2 4 6 -3 3 -15 -7 -22 -20
-22 -20 -14 0 7 18 6 18 -20 1 -23 -15 -26 -15 -20 -1 5 14 3 15 -15 5 -14 -8
-23 -8 -27 -1 -5 8 -11 7 -21 -1 -8 -6 -14 -8 -14 -4 0 4 -7 2 -15 -5 -13 -11
-14 -10 -10 3 4 8 1 18 -6 23 -8 4 -10 3 -5 -4 4 -7 1 -12 -9 -12 -9 0 -14 -4
-11 -9 4 -5 -3 -7 -14 -4 -11 3 -18 9 -15 13 6 10 -21 7 -31 -3 -12 -11 -26
-8 -18 4 4 8 1 8 -12 1 -21 -10 -63 -10 -79 0 -6 4 -17 3 -25 -2 -9 -5 -19 -5
-27 1 -8 7 -18 7 -32 0 -26 -14 -34 -14 -25 2 4 6 -3 3 -15 -7 -22 -20 -22
-20 -14 0 7 18 6 18 -20 1 -23 -15 -26 -15 -20 -1 5 13 2 15 -13 7 -23 -11
-34 -11 -53 1 -11 7 -13 5 -7 -9 5 -14 3 -15 -6 -8 -7 6 -32 10 -55 8 -26 -1
-40 1 -37 7 4 6 -4 5 -16 -2 -18 -9 -24 -9 -30 0 -6 9 -9 9 -15 1 -5 -9 -11
-9 -23 1 -12 10 -14 10 -8 1 4 -7 3 -13 -3 -13 -5 0 -13 5 -16 10 -5 8 -11 7
-21 -1 -8 -6 -14 -8 -14 -4 0 4 -7 2 -15 -5 -13 -11 -14 -10 -8 5 5 15 3 17
-13 11 -39 -16 -57 -19 -51 -8 8 12 -11 11 -32 -3 -10 -5 -16 -4 -19 4 -3 9
-7 9 -19 0 -12 -10 -16 -10 -24 2 -5 8 -9 9 -9 3 0 -12 -69 -12 -89 1 -10 5
-12 4 -7 -3 4 -7 2 -12 -3 -12 -6 0 -11 6 -11 13 0 7 -3 8 -8 2 -11 -15 -64
-17 -55 -2 4 7 -5 4 -20 -6 -22 -14 -25 -14 -21 -2 5 11 2 13 -10 9 -9 -3 -13
-11 -9 -18 3 -6 -3 -3 -14 7 -11 9 -23 14 -27 10 -12 -13 -48 -14 -40 -1 4 7
3 8 -4 4 -7 -4 -21 -9 -32 -11 -18 -3 -19 -1 -8 18 9 19 9 20 -3 10 -12 -9
-14 -3 -15 37 0 27 3 47 7 44 4 -2 4 9 -1 26 -5 16 -6 30 -3 30 3 0 -1 8 -8
17 -12 15 -12 16 4 10 11 -4 16 -3 12 4 -4 6 -8 39 -10 75 -2 46 0 63 8 58 7
-3 3 2 -7 10 -12 10 -15 16 -7 16 10 0 12 15 7 60 -3 41 -2 59 5 54 8 -4 8 0
2 12 -5 11 -8 38 -8 62 1 24 -3 42 -9 42 -6 0 -5 4 3 9 9 6 12 23 7 65 -4 39
-2 55 5 50 8 -4 8 0 2 12 -5 11 -8 38 -8 62 1 24 -3 42 -9 42 -6 0 -5 4 3 9
10 6 12 20 8 45 -3 20 -2 34 3 31 5 -3 5 8 0 25 -5 16 -6 30 -3 30 3 0 -1 8
-8 17 -12 15 -12 16 4 10 10 -4 16 -3 14 1 -10 16 -17 83 -8 77 6 -3 6 6 1 25
-5 16 -6 30 -3 30 3 0 -1 8 -8 17 -12 15 -12 16 4 10 10 -4 16 -3 14 1 -10 16
-17 83 -8 77 6 -3 6 6 1 25 -5 16 -6 30 -3 30 3 0 -1 8 -8 17 -12 15 -12 16 4
10 10 -4 16 -3 14 1 -10 16 -17 83 -8 77 6 -3 6 6 1 25 -5 16 -6 30 -3 30 3 0
-1 8 -8 17 -12 15 -12 16 4 10 11 -4 16 -3 12 4 -4 6 -8 39 -10 75 -2 46 0 63
8 58 7 -3 3 2 -7 10 -12 10 -15 16 -7 16 10 0 12 15 7 60 -3 41 -2 59 5 54 8
-4 8 0 2 12 -5 11 -8 38 -8 62 1 24 -3 42 -9 42 -6 0 -5 4 3 9 9 6 12 23 7 65
-4 41 -2 55 6 50 7 -5 8 -3 3 6 -4 7 -8 33 -9 59 -1 25 -5 51 -9 58 -4 6 -2
15 4 19 8 5 9 3 4 -6 -5 -8 -4 -11 2 -7 6 4 8 19 5 34 -5 25 -4 27 12 14 14
-12 16 -12 11 1 -4 11 2 14 25 12 17 -1 34 -5 37 -8 3 -3 12 2 20 12 8 9 11
11 7 3 -5 -11 -3 -13 9 -8 9 3 19 2 22 -4 4 -5 11 -6 17 -3 6 4 24 7 39 6 16
0 29 4 29 9 0 6 5 7 10 4 6 -4 8 -11 5 -16 -4 -5 -1 -9 4 -9 6 0 11 4 11 8 0
10 30 9 48 -2 8 -4 12 -1 12 9 0 9 5 13 10 10 6 -4 8 -10 6 -14 -3 -4 14 -5
37 -1 24 3 55 3 70 -1 16 -4 25 -3 21 2 -7 12 3 11 28 -2 13 -7 18 -7 14 -1
-3 6 -2 13 4 17 5 3 10 1 10 -6 0 -7 3 -10 6 -7 3 4 19 2 35 -2 16 -5 27 -5
24 0 -3 5 -1 11 5 15 5 3 10 2 10 -3 0 -6 7 -13 16 -16 8 -3 12 -2 9 4 -8 13
1 13 27 -1 13 -7 18 -7 14 -1 -3 6 -2 13 4 17 5 3 10 2 10 -4 0 -5 16 -8 35
-6 19 2 32 -1 29 -6 -10 -16 8 -9 23 9 8 9 12 12 9 5 -7 -14 32 -14 51 -1 7 6
14 4 19 -3 5 -8 3 -10 -7 -4 -8 5 -11 4 -6 0 11 -12 47 -14 47 -2 0 5 8 3 17
-4 9 -8 14 -9 10 -3 -5 9 3 10 28 4 22 -5 35 -4 35 2 0 6 6 5 15 -2 11 -9 15
-9 15 -1 0 7 5 9 12 5 21 -13 73 -10 86 6 8 8 11 10 8 3 -4 -6 -2 -14 4 -18 5
-3 10 -1 10 5 0 6 5 8 13 3 19 -12 41 -9 55 7 10 11 12 12 6 1 -5 -10 -3 -13
9 -8 9 3 18 1 21 -6 3 -9 5 -8 5 1 1 10 6 10 22 2 11 -7 23 -9 27 -6 3 3 0 6
-8 6 -9 0 -10 3 -1 13 6 8 8 17 4 20 -3 4 0 14 8 24 8 9 9 14 3 10 -7 -4 -15
0 -18 9 -3 8 -2 13 3 10 5 -3 11 3 14 13 4 15 1 18 -12 13 -13 -5 -14 -3 -4 9
13 16 12 36 -1 58 -6 9 -5 12 2 7 7 -4 10 15 7 66 -2 46 1 78 8 87 9 11 9 13
1 8 -7 -4 -15 0 -18 9 -3 8 -2 12 4 9 6 -3 10 1 10 9 0 9 -6 16 -12 16 -7 0
-2 6 12 13 14 7 26 9 28 5 2 -4 12 -3 23 2 14 8 19 7 19 -2 0 -9 3 -9 10 2 9
13 10 13 10 0 0 -12 2 -12 9 -1 6 9 10 10 16 2 5 -9 10 -9 21 0 11 9 14 9 14
-1 0 -10 3 -10 15 0 12 10 15 10 15 -1 0 -12 2 -12 9 0 6 9 10 10 16 2 5 -9
10 -9 21 0 11 9 14 9 14 -1 0 -10 3 -10 15 0 11 9 15 9 15 1 0 -9 5 -9 20 -1
15 8 20 8 20 -2 0 -10 2 -10 9 1 7 11 9 11 14 0 5 -12 6 -12 6 0 1 11 4 11 18
0 11 -10 14 -10 9 -1 -4 6 -3 12 1 12 5 0 15 -6 22 -12 12 -11 13 -10 7 6 -5
15 -4 17 7 7 11 -8 16 -5 25 14 8 18 8 25 1 25 -8 0 -7 6 2 16 7 9 9 18 3 22
-13 10 -17 35 -4 27 5 -3 10 -1 10 4 0 6 -6 11 -12 11 -9 0 -8 4 2 10 13 9 13
10 0 10 -9 0 -11 3 -5 8 15 11 17 32 2 32 -8 0 -7 4 3 10 13 9 13 10 0 10 -13
0 -13 1 0 10 13 9 13 10 0 10 -13 0 -13 1 0 10 11 7 11 10 2 10 -10 0 -10 5
-2 20 8 15 8 20 -1 20 -8 0 -8 4 1 15 9 11 9 15 1 15 -7 0 -9 5 -5 12 12 19
12 48 1 48 -5 0 -4 7 3 15 10 12 10 15 -1 15 -11 0 -11 2 1 10 11 7 11 10 2
10 -10 0 -10 5 -1 21 9 17 8 20 -3 13 -11 -6 -11 -5 1 9 9 12 10 17 2 17 -8 0
-9 6 -2 18 14 26 14 34 1 42 -8 5 -9 13 -4 21 12 19 12 49 1 49 -5 0 -4 7 3
15 10 12 10 15 -1 15 -11 0 -11 2 1 10 11 7 11 10 2 10 -10 0 -10 5 -1 21 9
17 8 20 -3 13 -11 -6 -11 -5 1 9 9 12 10 17 2 17 -7 0 -9 4 -6 10 11 18 14 50
4 50 -6 0 -6 7 0 19 17 32 -21 50 -56 28 -7 -5 -13 -4 -13 2 0 10 -88 6 -99
-4 -2 -3 -10 0 -18 6 -10 9 -17 8 -28 -1 -11 -9 -15 -9 -15 -1 0 7 -4 9 -10 6
-5 -3 -10 0 -10 7 0 8 -3 9 -8 3 -4 -6 -22 -11 -39 -10 -18 0 -33 -3 -33 -7 0
-13 -18 -9 -34 7 -18 18 -30 20 -20 3 4 -7 -7 3 -24 22 -31 35 -43 68 -19 54
8 -6 8 -3 -1 9 -8 9 -11 21 -7 27 4 6 2 17 -5 25 -8 10 -8 15 1 21 8 5 9 3 4
-6 -5 -9 -4 -11 4 -6 9 6 9 11 0 22 -6 8 -8 14 -4 14 4 0 1 8 -6 17 -8 9 -9
14 -3 10 8 -4 10 25 8 101 -4 135 -4 141 -11 124 -4 -10 -8 -10 -19 -1 -11 9
-14 9 -14 -1 0 -10 -3 -10 -14 -1 -11 9 -16 9 -21 0 -6 -8 -10 -8 -15 2 -7 10
-11 10 -24 0 -12 -11 -16 -11 -16 -1 0 9 -4 9 -17 -1 -15 -12 -16 -12 -8 1 7
12 6 13 -6 4 -16 -12 -29 -12 -46 -1 -8 5 -13 3 -13 -4 0 -9 -3 -9 -14 0 -11
9 -16 9 -21 0 -6 -8 -10 -7 -16 2 -7 11 -9 11 -9 1 0 -10 -5 -10 -21 -1 -15 8
-19 8 -15 0 4 -6 3 -11 -3 -11 -5 0 -12 6 -14 13 -4 9 -8 9 -15 -2 -6 -8 -12
-9 -16 -3 -5 8 -34 9 -43 2 -8 -7 -30 -5 -40 3 -9 6 -13 5 -13 -4 0 -11 -2
-11 -10 1 -7 11 -10 11 -10 2 0 -10 -5 -10 -20 -2 -15 8 -20 8 -20 -1 0 -9 -3
-9 -14 0 -11 9 -16 9 -21 0 -6 -8 -10 -8 -15 2 -7 10 -11 10 -24 0 -12 -11
-16 -11 -16 -1 0 9 -4 9 -17 -1 -15 -12 -16 -12 -8 1 7 12 6 13 -6 4 -16 -12
-29 -12 -46 -1 -8 5 -13 3 -13 -4 0 -8 -5 -7 -17 2 -15 12 -16 12 -8 -1 8 -13
7 -13 -8 -1 -13 10 -17 10 -17 1 0 -9 -3 -10 -13 -1 -10 8 -17 7 -25 -1 -9 -9
-12 -9 -12 0 0 6 -7 9 -15 6 -8 -4 -15 -13 -15 -21 0 -8 -4 -12 -8 -9 -4 2 -8
-4 -8 -14 0 -10 4 -16 8 -14 11 7 10 -8 -2 -26 -5 -9 -5 -19 1 -27 7 -8 7 -18
1 -29 -7 -13 -5 -25 6 -43 14 -22 14 -24 1 -14 -12 10 -15 8 -15 -8 0 -10 4
-19 9 -19 5 0 4 -6 -2 -14 -9 -10 -9 -16 -1 -21 8 -5 8 -10 0 -20 -8 -10 -7
-14 2 -17 10 -4 10 -8 -1 -21 -10 -13 -10 -17 -1 -17 7 0 10 -7 6 -15 -3 -8
-9 -23 -12 -32 -5 -15 -4 -16 5 -3 6 9 11 10 11 3 0 -17 -30 -44 -41 -38 -13
8 -50 -20 -42 -31 4 -5 1 -3 -7 4 -18 15 -44 16 -34 0 5 -7 3 -8 -7 -2 -21 13
-39 14 -39 1 0 -7 -5 -5 -10 3 -9 13 -10 13 -10 0 0 -10 -3 -11 -8 -4 -8 12
-56 13 -68 1 -4 -4 -16 1 -27 10 -13 11 -17 12 -12 4 6 -11 4 -13 -7 -8 -9 3
-21 0 -27 -6 -8 -8 -11 -8 -11 0 0 11 -30 10 -49 -2 -5 -3 -13 0 -17 6 -13 22
-35 -20 -23 -44 7 -12 7 -17 1 -13 -12 7 -10 -42 2 -63 6 -10 5 -12 -2 -7 -7
4 -12 1 -12 -9 0 -10 5 -13 13 -9 6 4 3 -3 -8 -16 -11 -13 -15 -21 -9 -17 8 4
12 -8 12 -39 1 -29 -2 -42 -9 -38 -6 3 -3 -6 7 -22 11 -15 14 -25 7 -21 -13 8
-13 -39 1 -62 6 -10 5 -12 -2 -7 -7 4 -12 1 -12 -9 0 -10 5 -13 12 -9 7 4 4
-3 -7 -16 -11 -13 -15 -21 -9 -17 8 4 12 -8 12 -39 1 -29 -2 -42 -9 -38 -6 3
-3 -6 7 -22 11 -15 14 -25 9 -22 -13 8 -12 -252 0 -272 6 -9 4 -11 -5 -5 -10
6 -12 4 -7 -9 4 -9 3 -14 -2 -11 -5 3 -13 1 -16 -5 -5 -8 -11 -7 -21 1 -11 9
-14 8 -14 -2 0 -12 -2 -12 -9 0 -6 9 -11 10 -15 2 -5 -7 -13 -8 -25 -1 -12 6
-22 5 -29 -2 -9 -9 -12 -9 -12 1 0 10 -3 11 -13 2 -10 -8 -17 -7 -25 1 -9 9
-12 9 -12 -1 0 -11 -3 -11 -15 -1 -12 10 -15 10 -15 -1 0 -11 -2 -11 -10 1 -9
13 -10 13 -10 0 0 -12 -2 -13 -9 -1 -6 8 -14 10 -22 5 -21 -13 -38 -13 -45 -2
-4 6 -10 5 -15 -3 -8 -12 -10 -12 -18 0 -6 9 -10 10 -16 2 -5 -9 -10 -9 -21 0
-11 9 -14 9 -14 -1 0 -10 -4 -9 -16 1 -11 9 -15 25 -12 51 2 21 -1 40 -7 42
-5 2 -4 5 3 5 10 1 10 6 2 21 -8 15 -8 20 2 20 9 0 9 3 -2 10 -11 7 -11 10 -2
10 10 0 10 5 2 20 -8 15 -8 20 2 20 9 0 9 3 -2 10 -13 8 -13 10 -1 10 12 0 12
3 3 12 -9 9 -7 15 6 25 9 8 12 12 6 9 -7 -3 -14 1 -18 9 -3 8 0 15 7 15 8 0 6
4 -3 10 -11 7 -11 10 -2 10 10 0 10 5 2 20 -8 15 -8 20 2 20 9 0 9 3 -2 10 -8
5 -10 10 -5 10 10 0 11 189 1 216 -3 9 1 14 12 15 14 0 14 2 -3 9 -11 5 -14 9
-6 9 11 1 11 4 1 16 -9 11 -9 15 -1 15 9 0 9 5 1 20 -8 15 -8 20 2 20 10 0 10
2 0 9 -11 6 -10 10 5 15 17 7 17 8 -1 22 -11 8 -14 14 -8 14 10 0 10 5 2 20
-8 15 -8 20 1 20 9 0 9 3 0 14 -9 11 -9 15 1 19 11 4 10 6 0 6 -8 1 -10 6 -6
14 4 6 4 9 -1 5 -4 -4 -14 -3 -21 3 -8 7 -14 6 -20 -2 -5 -8 -3 -9 6 -4 9 5
11 4 6 -4 -4 -6 -13 -8 -19 -4 -20 12 -37 12 -37 0 0 -7 -5 -5 -10 3 -9 13
-10 13 -10 0 0 -10 -3 -11 -8 -4 -8 12 -56 13 -68 1 -4 -4 -16 1 -27 10 -13
11 -17 12 -12 4 6 -11 4 -13 -8 -8 -10 4 -17 2 -17 -5 0 -7 -4 -7 -13 1 -10 8
-17 7 -27 -2 -10 -9 -11 -9 -6 1 5 8 1 11 -13 9 -11 -2 -24 -6 -27 -10 -4 -4
-16 0 -26 10 -11 9 -18 11 -18 5 0 -7 -4 -12 -10 -12 -5 0 -6 7 -3 17 5 12 3
14 -7 8 -10 -6 -12 -3 -8 13 4 12 3 20 0 18 -4 -2 -11 1 -17 8 -13 15 -19 50
-7 42 14 -8 4 32 -16 68 -3 5 -1 6 4 3 6 -3 9 26 8 76 -1 45 3 88 9 95 6 8 5
17 -3 27 -6 8 -10 20 -7 27 2 7 0 21 -5 31 -7 15 -12 16 -24 6 -11 -9 -14 -8
-14 2 0 11 -2 11 -10 -1 -9 -13 -10 -13 -10 0 0 9 -3 11 -8 5 -10 -14 -32 -17
-32 -5 0 6 -5 10 -11 10 -5 0 -8 -4 -5 -8 2 -4 -4 -8 -14 -8 -10 0 -17 3 -15
6 5 9 -33 6 -41 -3 -4 -4 -13 -2 -21 4 -10 9 -13 8 -13 -1 0 -10 -3 -10 -15 0
-10 9 -15 9 -15 1 0 -13 -22 -10 -32 4 -5 6 -8 5 -8 -3 0 -9 -5 -10 -17 -3
-10 5 -22 9 -28 9 -5 0 -18 -4 -27 -9 -14 -7 -18 -6 -18 6 0 9 -4 14 -9 11 -5
-3 -12 2 -15 11 -4 9 -2 20 5 23 8 6 8 9 0 14 -8 5 -8 13 0 28 8 15 8 19 0 14
-6 -4 -11 -3 -11 3 0 5 6 12 13 14 10 4 10 6 0 6 -7 1 -13 6 -13 12 0 5 5 7
12 3 7 -5 8 -3 3 5 -11 20 -12 71 -1 71 6 0 5 4 -3 9 -11 7 -11 9 0 14 10 4
10 6 2 6 -7 1 -13 6 -13 12 0 5 6 7 13 3 10 -6 10 -4 0 7 -7 7 -13 17 -13 22
0 4 6 5 13 1 6 -4 3 3 -8 16 -11 13 -14 20 -7 16 8 -5 12 0 12 13 0 12 -5 21
-12 21 -6 0 -4 6 6 13 16 12 17 15 3 29 -10 9 -12 19 -6 25 11 11 -60 11 -78
0 -9 -6 -11 -3 -6 9 5 14 3 15 -15 5 -12 -7 -22 -8 -22 -4 0 4 -5 1 -10 -7 -8
-12 -10 -12 -10 5 0 16 -2 17 -10 5 -5 -8 -12 -11 -16 -7 -4 4 -14 1 -22 -6
-13 -9 -14 -9 -8 1 4 6 3 12 -3 12 -5 0 -13 -5 -16 -10 -5 -7 -11 -8 -19 -1
-6 5 -26 8 -45 5 -19 -3 -39 0 -49 8 -11 9 -14 10 -8 0 8 -13 -19 -13 -41 1
-6 4 -14 3 -17 -2 -8 -13 -78 -11 -95 2 -12 9 -13 9 -7 -1 8 -13 -19 -13 -41
1 -6 4 -14 3 -17 -2 -8 -13 -78 -11 -95 2 -12 9 -13 9 -7 -1 8 -13 -19 -13
-41 1 -6 4 -14 3 -17 -2 -8 -13 -78 -11 -95 2 -12 9 -13 9 -7 -1 5 -8 1 -11
-13 -9 -11 2 -23 6 -27 9 -3 4 -15 2 -25 -5 -15 -9 -24 -9 -40 1 -12 8 -18 9
-15 3 4 -7 -8 -9 -34 -6 -24 3 -38 0 -35 -5 7 -11 -24 -2 -43 13 -9 7 -16 7
-20 0 -9 -13 -105 -12 -114 1 -5 7 -8 6 -8 -2z m3770 -847 c11 -13 10 -14 -4
-9 -9 3 -16 10 -16 15 0 13 6 11 20 -6z"/>
<path d="M5475 8379 c-4 -6 -5 -12 -2 -15 2 -3 7 2 10 11 7 17 1 20 -8 4z"/>
<path d="M3670 6276 c0 -2 8 -10 18 -17 15 -13 16 -12 3 4 -13 16 -21 21 -21
13z"/>
<path d="M6870 5806 c0 -2 7 -7 16 -10 8 -3 12 -2 9 4 -6 10 -25 14 -25 6z"/>
</g>
</svg>
