<?xml version="1.0" standalone="no"?>
<!DOCTYPE svg PUBLIC "-//W3C//DTD SVG 20010904//EN"
 "http://www.w3.org/TR/2001/REC-SVG-20010904/DTD/svg10.dtd">
<svg version="1.0" xmlns="http://www.w3.org/2000/svg"
 width="343.000000pt" height="343.000000pt" viewBox="0 0 343.000000 343.000000"
 preserveAspectRatio="xMidYMid meet">
<metadata>
Created by potrace 1.14, written by Peter Selinger 2001-2017
</metadata>
<g transform="translate(0.000000,343.000000) scale(0.100000,-0.100000)"
fill="#000000" stroke="none">
<path d="M532 3098 c2 -40 6 -72 11 -70 4 1 100 2 215 2 l207 0 0 67 -1 68
-217 3 -218 2 3 -72z"/>
<path d="M382 2803 l3 -218 68 -3 67 -3 0 221 0 220 -70 0 -70 0 2 -217z"/>
<path d="M970 2950 l0 -70 70 0 70 0 0 70 0 70 -70 0 -70 0 0 -70z"/>
<path d="M1560 2950 l0 -70 145 0 145 0 0 70 0 70 -145 0 -145 0 0 -70z"/>
<path d="M1120 2725 l0 -145 -75 0 -75 0 0 -75 0 -75 -145 0 -145 0 0 -70 0
-70 293 -2 292 -3 0 -295 0 -295 -222 -3 -223 -2 0 -365 0 -365 75 0 75 0 0
-295 0 -295 75 0 75 0 0 -70 0 -70 383 -2 c210 -2 472 -3 582 -3 l200 0 3 73
3 72 74 0 75 0 0 295 0 295 75 0 75 0 0 365 0 364 -147 3 -148 3 0 150 0 150
148 -3 147 -4 0 76 0 76 69 0 c39 0 73 5 76 10 4 6 3 71 -1 145 l-7 135 -138
0 -138 0 -3 -72 -3 -73 -72 -3 -73 -3 0 -69 0 -70 -75 0 -75 0 0 70 0 70 -220
0 -220 0 0 -142 0 -143 70 0 70 0 0 73 0 72 150 0 150 0 0 -75 0 -75 -145 0
-145 0 0 -70 0 -70 145 0 146 0 -3 -77 -3 -78 -367 -2 -368 -3 0 375 0 375
220 0 220 0 0 70 0 70 -75 0 -75 0 0 75 0 75 -70 0 -70 0 0 70 0 70 -75 0 -75
0 0 -145 0 -145 -75 0 -75 0 0 145 0 145 -70 0 -70 0 0 -145z"/>
<path d="M1854 2728 l1 -143 70 1 70 0 3 142 3 142 -74 0 -74 0 1 -142z"/>
<path d="M822 2658 l3 -73 70 0 70 0 0 70 0 70 -73 3 -73 3 3 -73z"/>
<path d="M530 2510 l0 -70 70 0 70 0 0 70 0 70 -70 0 -70 0 0 -70z"/>
</g>
</svg>
